Coordinates
version=1
nRows=17
nColumns=40
inDegrees=yes

Units are S.I. units (second, meters, Newtons, ...)
Angles are in degrees.

endheader
time	pelvis_tilt	pelvis_list	pelvis_rotation	pelvis_tx	pelvis_ty	pelvis_tz	hip_flexion_r	hip_adduction_r	hip_rotation_r	knee_angle_r	knee_angle_r_beta	ankle_angle_r	subtalar_angle_r	mtp_angle_r	hip_flexion_l	hip_adduction_l	hip_rotation_l	knee_angle_l	knee_angle_l_beta	ankle_angle_l	subtalar_angle_l	mtp_angle_l	lumbar_extension	lumbar_bending	lumbar_rotation	arm_flex_r	arm_add_r	arm_rot_r	elbow_flex_r	pro_sup_r	wrist_flex_r	wrist_dev_r	arm_flex_l	arm_add_l	arm_rot_l	elbow_flex_l	pro_sup_l	wrist_flex_l	wrist_dev_l
      0.95000000	      1.69831131	     -1.55037756	     -2.21214705	     -0.39821396	      0.87972849	     -1.03473860	     25.16831365	     -0.83132661	    -20.44461590	    -17.29076602	     -0.30178080	     -3.85929139	      5.66847135	     -3.09219581	    -12.69611470	     -1.02667169	     10.59951475	    -14.65672804	     -0.25580816	     13.54303971	     -7.45675579	     -6.78914332	    -10.74861526	      4.03962269	     -3.02231853	      5.02489451	     -7.99726021	     17.17232927	     14.63619282	     89.95437384	      0.00000000	      0.00000000	     14.79995725	     11.66341207	    -10.25398033	     31.41120846	     89.95437384	      0.00000000	      0.00000000
      0.96000000	      1.64629843	     -1.56846002	     -2.05256625	     -0.38952760	      0.87917860	     -1.03392543	     25.04379953	     -0.76805441	    -20.00525493	    -17.95348864	     -0.31334749	     -3.91195143	      5.36517920	     -3.09943751	    -13.01346043	     -0.87717165	     10.34144084	    -15.09856601	     -0.26351969	     13.34777243	     -7.34729961	     -6.73564429	    -10.63715261	      4.11519950	     -3.12613716	      4.81974088	     -7.95807263	     17.03416232	     14.47389061	     89.95437384	      0.00000000	      0.00000000	     14.46200593	     11.64023981	    -10.14848943	     31.77309018	     89.95437384	      0.00000000	      0.00000000
      0.97000000	      1.53780510	     -1.59237508	     -1.87914620	     -0.38059943	      0.87854870	     -1.03300604	     24.84850431	     -0.64540551	    -19.44994982	    -18.59145097	     -0.32448203	     -4.02219296	      5.08000874	     -3.07256323	    -13.29229718	     -0.69602110	     10.00644418	    -15.48455127	     -0.27025640	     13.14616889	     -7.28059475	     -6.68294948	    -10.41060888	      4.19657305	     -3.23634746	      4.57187622	     -7.91719011	     16.95845230	     14.34689384	     89.95437384	      0.00000000	      0.00000000	     14.10906679	     11.56057796	     -9.99572455	     31.96555005	     89.95437384	      0.00000000	      0.00000000
      0.98000000	      1.50649006	     -1.64951848	     -1.75917278	     -0.37145257	      0.87818348	     -1.03196212	     24.54289482	     -0.49147511	    -19.24895563	    -19.11563877	     -0.33363084	     -5.10399131	      4.61407608	     -2.90164146	    -13.65697562	     -0.50272949	      9.77028338	    -15.93193916	     -0.27806479	     12.84400132	     -7.16877460	     -6.64118699	    -10.27859352	      4.30788536	     -3.31779717	      4.43048321	     -7.84899130	     16.93621895	     14.01167087	     89.95437384	      0.00000000	      0.00000000	     13.67541588	     11.48337233	     -9.78474112	     32.16385622	     89.95437384	      0.00000000	      0.00000000
      0.99000000	      1.44163255	     -1.93031411	     -1.53615707	     -0.36251273	      0.87820035	     -1.03102287	     24.05424900	     -0.08866209	    -19.24849132	    -18.79727176	     -0.32807428	     -7.22688038	      4.12463356	     -2.65859219	    -13.82294772	     -0.01145483	      9.55372522	    -16.59719437	     -0.28967569	     12.27829212	     -6.96471628	     -6.66014598	    -10.16208100	      4.69045954	     -3.49236406	      4.28085517	     -7.85726295	     16.91540327	     13.90635159	     89.95437384	      0.00000000	      0.00000000	     13.20995723	     11.31802951	     -9.39642241	     32.27574560	     89.95437384	      0.00000000	      0.00000000
      1.00000000	      1.29656667	     -2.29079416	     -1.43848525	     -0.35335440	      0.87823494	     -1.02972825	     23.95675545	      0.37645640	    -18.84764275	    -19.18362105	     -0.33481735	     -7.30049328	      3.86526428	     -2.65593206	    -13.98777899	      0.52241117	      9.21106179	    -17.16452935	     -0.29957755	     11.87406300	     -6.76742172	     -6.58106746	     -9.91752610	      5.13707439	     -3.48306748	      4.12120877	     -7.87955170	     16.95029147	     13.68420115	     89.95437384	      0.00000000	      0.00000000	     12.81350350	     11.14818180	     -9.31249928	     32.11427087	     89.95437384	      0.00000000	      0.00000000
      1.01000000	      1.42439642	     -3.17682775	     -1.15418001	     -0.34391371	      0.87903935	     -1.02819508	     22.98455228	      1.61913402	    -18.52170644	    -18.45371864	     -0.32207815	     -8.05353419	      0.59721660	     -2.87804638	    -14.19920690	      1.88230827	      9.78306396	    -18.25877328	     -0.31867571	     11.06027422	     -7.47208328	     -7.06029109	    -10.00031910	      6.14157973	     -3.64552246	      4.03590385	     -7.95465159	     17.33386232	     13.54315648	     89.95437384	      0.00000000	      0.00000000	     12.31802556	     10.82551990	     -8.56811518	     31.97914519	     89.95437384	      0.00000000	      0.00000000
      1.02000000	      1.21789029	     -3.40229372	     -1.12359092	     -0.33464186	      0.87934002	     -1.02705133	     22.97369578	      1.85684418	    -18.60469807	    -19.12844541	     -0.33385435	     -7.71325279	     -0.01660643	     -2.89274493	    -14.11264938	      2.25894656	      9.67119140	    -19.09218137	     -0.33322143	     10.30914452	     -6.99991603	     -6.90209514	     -9.68968268	      6.45400747	     -3.59921109	      3.90598568	     -7.99102235	     17.40755197	     13.29598127	     89.95437384	      0.00000000	      0.00000000	     11.89583866	     10.62519349	     -8.59810851	     31.62092792	     89.95437384	      0.00000000	      0.00000000
      1.03000000	      1.01431490	     -3.66253784	     -1.10718912	     -0.32543084	      0.87988424	     -1.02580749	     22.88741371	      2.27513623	    -18.23491807	    -19.66921702	     -0.34329260	     -7.43332760	     -0.27499420	     -2.91030615	    -13.92941094	      2.66464299	      9.36964302	    -20.10585869	     -0.35091343	      9.52244208	     -6.53239907	     -6.72566276	     -9.39474970	      6.78725062	     -3.52727920	      3.78765426	     -8.05389075	     17.50036039	     13.12265517	     89.95437384	      0.00000000	      0.00000000	     11.44254312	     10.40726089	     -8.55769651	     31.28004527	     89.95437384	      0.00000000	      0.00000000
      1.04000000	      0.77848117	     -4.06500997	     -1.00273023	     -0.31601673	      0.88062763	     -1.02452235	     22.63428284	      2.91739486	    -17.72129916	    -19.85317690	     -0.34650330	     -6.89884620	     -0.69909361	     -2.98169418	    -13.54879036	      3.35955404	      9.37810774	    -21.40247167	     -0.37354360	      8.57184072	     -6.10317947	     -6.59538235	     -9.02213618	      7.28638742	     -3.58460548	      3.70655781	     -8.11557876	     17.72980358	     12.89931410	     89.95437384	      0.00000000	      0.00000000	     10.95426017	     10.13486182	     -8.38099685	     30.71521492	     89.95437384	      0.00000000	      0.00000000
      1.05000000	      0.61457758	     -4.24945025	     -1.08463627	     -0.30670206	      0.88162901	     -1.02329250	     22.47503266	      3.23794900	    -17.34175170	    -20.46023569	     -0.35709848	     -6.45463320	     -0.98161582	     -2.96221844	    -13.29802419	      3.63694993	      9.06758330	    -22.53045914	     -0.39323069	      7.43227879	     -5.59067275	     -6.35252351	     -8.79951902	      7.54633518	     -3.40977274	      3.59012040	     -8.23146363	     17.81372261	     12.83746009	     89.95437384	      0.00000000	      0.00000000	     10.44828745	      9.91071662	     -8.34166391	     30.32193080	     89.95437384	      0.00000000	      0.00000000
      1.06000000	      0.56923476	     -4.43749232	     -1.08647232	     -0.29723677	      0.88296955	     -1.02202511	     22.00211299	      3.55827523	    -17.07276665	    -20.82253980	     -0.36342188	     -5.56406650	     -1.40470464	     -2.95453247	    -12.88065173	      4.05793893	      9.09980436	    -24.15701004	     -0.42161936	      5.80402632	     -4.84497419	     -6.03504805	     -8.63261393	      7.78423058	     -3.30062369	      3.57358335	     -8.28102735	     17.98856581	     12.58770244	     89.95437384	      0.00000000	      0.00000000	     10.06295722	      9.62001363	     -8.32983673	     29.53040172	     89.95437384	      0.00000000	      0.00000000
      1.07000000	      0.48558269	     -4.63388414	     -1.13780248	     -0.28768704	      0.88433007	     -1.02052617	     21.46453237	      3.92864529	    -16.76633172	    -20.99780615	     -0.36648085	     -4.81087927	     -1.61445498	     -2.92877488	    -12.38500385	      4.47319104	      9.08336476	    -25.79853072	     -0.45026930	      4.29611840	     -4.26813677	     -5.75938422	     -8.42202748	      8.00449567	     -3.16012899	      3.50280361	     -8.36587314	     18.10900234	     12.47201779	     89.95437384	      0.00000000	      0.00000000	      9.57121358	      9.39466842	     -8.30051160	     28.91246473	     89.95437384	      0.00000000	      0.00000000
      1.08000000	      0.44194481	     -4.75519808	     -1.15757419	     -0.27830775	      0.88577171	     -1.01909676	     20.77700842	      4.19072804	    -16.58093062	    -20.98671369	     -0.36628725	     -4.04792756	     -1.72240095	     -2.89500477	    -11.66624639	      4.92110344	      9.33743386	    -27.77701374	     -0.48480035	      2.36237031	     -3.69036838	     -5.45065085	     -8.27388343	      8.13817748	     -3.06069398	      3.47765607	     -8.42803750	     18.23848991	     12.40094832	     89.95437384	      0.00000000	      0.00000000	      9.14815882	      9.17953370	     -8.32050964	     28.11314563	     89.95437384	      0.00000000	      0.00000000
      1.09000000	      0.02459408	     -5.70374497	     -1.07878781	     -0.26875650	      0.88644916	     -1.01660133	     20.19952111	      5.60488354	    -16.18912091	    -20.26769190	     -0.35373796	     -3.76295568	     -2.75030382	     -2.38425747	    -10.21795927	      6.98523419	     11.11125963	    -30.49350269	     -0.53221202	     -0.36864068	     -6.13303790	     -5.91324448	     -7.61710435	      9.11542864	     -3.07299875	      3.35420141	     -8.57588623	     18.95436789	     12.45735413	     89.95437384	      0.00000000	      0.00000000	      8.56905993	      8.97120839	     -8.25257594	     27.27102259	     89.95437384	      0.00000000	      0.00000000
      1.10000000	     -0.01168102	     -5.60229469	     -1.15999968	     -0.25958544	      0.88774800	     -1.01518839	     19.55546790	      5.62306214	    -16.02363205	    -20.31862465	     -0.35462690	     -3.01318656	     -2.61865318	     -2.34040224	     -9.36143367	      7.15924938	     11.06865749	    -32.48451396	     -0.56696172	     -2.88730246	     -5.12361164	     -5.49243883	     -7.48406955	      8.99033828	     -2.91445387	      3.36895475	     -8.63764721	     19.01591610	     12.44557855	     89.95437384	      0.00000000	      0.00000000	      8.18209206	      8.82446120	     -8.41171090	     26.43215610	     89.95437384	      0.00000000	      0.00000000
      1.11000000	     -0.09046367	     -5.56984909	     -1.13869531	     -0.25064888	      0.88878348	     -1.01375922	     18.96634005	      5.68576813	    -16.06221177	    -20.34129658	     -0.35502260	     -2.32580152	     -2.35891704	     -2.32007680	     -8.21168870	      7.50565815	     10.99852358	    -34.76550578	     -0.60677254	     -5.69447740	     -4.24710264	     -5.06994389	     -7.31654870	      8.92247255	     -2.78899452	      3.37953950	     -8.71356288	     19.06503045	     12.53323710	     89.95437384	      0.00000000	      0.00000000	      7.85861089	      8.68557634	     -8.58131717	     25.57900514	     89.95437384	      0.00000000	      0.00000000
